<svg version="1.2" xmlns="http://www.w3.org/2000/svg" viewBox="0 0 110 95" width="110" height="95">
	<style>
		tspan { white-space:pre } 
		.s0 { fill: #000000 } 
		.t1 { font-size: 5px;fill: #000000;font-family: "Arbeit  Regular" } 
	</style>
	<path class="s0" d="m14 54.16v-4c0-0.55 0.45-1 1-1 0.55 0 1 0.45 1 1v4c0 0.55-0.45 1-1 1-0.55 0-1-0.44-1-1zm63.61-38.04l3.71 1.49q0.19 0.07 0.37 0.07c0.4 0 0.77-0.24 0.93-0.63 0.21-0.51-0.04-1.09-0.56-1.3l-3.71-1.49c-0.51-0.21-1.09 0.04-1.3 0.56-0.2 0.52 0.05 1.1 0.56 1.3zm-50.69 1.11c-0.21-0.51-0.79-0.76-1.3-0.56l-3.71 1.49c-0.51 0.21-0.76 0.79-0.56 1.3 0.16 0.39 0.53 0.63 0.93 0.63q0.19 0 0.37-0.07l3.71-1.49c0.51-0.2 0.76-0.78 0.56-1.3zm1.6 57.1l-3.71-1.49c-0.51-0.21-1.09 0.04-1.3 0.56-0.21 0.51 0.04 1.09 0.56 1.3l3.71 1.49q0.18 0.07 0.37 0.07c0.4 0 0.77-0.24 0.93-0.63 0.2-0.51-0.05-1.09-0.56-1.3zm-13.52-9.17c0.55 0 1-0.45 1-1v-4c0-0.55-0.45-1-1-1-0.55 0-1 0.45-1 1v4c0 0.56 0.45 1 1 1zm4.24 5.46l-3.71-1.49c-0.52-0.21-1.09 0.04-1.3 0.56-0.22 0.51 0.03 1.09 0.55 1.3l3.71 1.49q0.19 0.07 0.38 0.07c0.39 0 0.77-0.24 0.93-0.63 0.2-0.52-0.05-1.1-0.56-1.3zm30.89-61.67q0.18 0 0.37-0.07l3.71-1.49c0.51-0.21 0.76-0.79 0.56-1.3-0.21-0.51-0.79-0.76-1.3-0.56l-3.71 1.49c-0.51 0.21-0.76 0.79-0.56 1.3 0.16 0.39 0.53 0.63 0.93 0.63zm-18.57 7.43q0.18 0 0.37-0.07l3.71-1.49c0.51-0.21 0.76-0.79 0.56-1.3-0.2-0.52-0.79-0.77-1.3-0.56l-3.71 1.49c-0.51 0.21-0.76 0.79-0.56 1.3 0.16 0.39 0.54 0.63 0.93 0.63zm9.29-3.72q0.19 0 0.37-0.07l3.71-1.49c0.51-0.21 0.76-0.79 0.56-1.3-0.21-0.51-0.79-0.76-1.3-0.56l-3.71 1.49c-0.51 0.21-0.76 0.79-0.56 1.3 0.15 0.39 0.53 0.63 0.93 0.63zm18.19-3.96l3.71 1.49q0.19 0.07 0.37 0.07c0.4 0 0.77-0.24 0.93-0.63 0.21-0.51-0.04-1.09-0.56-1.3l-3.71-1.49c-0.51-0.21-1.09 0.04-1.3 0.56-0.2 0.51 0.05 1.09 0.56 1.3zm-44.04 26.46c0.55 0 1-0.45 1-1v-4c0-0.55-0.45-1-1-1-0.55 0-1 0.45-1 1v4c0 0.56 0.45 1 1 1zm0-10c0.55 0 1-0.45 1-1v-1.49l1.08-0.43c0.51-0.21 0.76-0.79 0.56-1.3-0.21-0.51-0.79-0.76-1.3-0.56l-1.72 0.68c-0.37 0.16-0.62 0.53-0.62 0.94v2.16c0 0.56 0.45 1 1 1zm53.33-12.75l3.71 1.49q0.18 0.07 0.37 0.07c0.4 0 0.77-0.24 0.93-0.63 0.21-0.51-0.04-1.09-0.56-1.3l-3.71-1.49c-0.51-0.21-1.09 0.04-1.3 0.56-0.2 0.51 0.05 1.09 0.56 1.3zm-53.33 32.75c0.55 0 1-0.45 1-1v-4c0-0.55-0.45-1-1-1-0.55 0-1 0.45-1 1v4c0 0.56 0.45 1 1 1zm80 5.84c-0.55 0-1 0.45-1 1v4c0 0.55 0.45 1 1 1 0.55 0 1-0.45 1-1v-4c0-0.55-0.45-1-1-1zm0 10c-0.55 0-1 0.45-1 1v4c0 0.55 0.45 1 1 1 0.55 0 1-0.45 1-1v-4c0-0.55-0.45-1-1-1zm-2.23 8.81l-3.71 1.49c-0.51 0.21-0.76 0.79-0.56 1.3 0.16 0.39 0.53 0.63 0.93 0.63q0.19 0 0.37-0.07l3.71-1.49c0.51-0.21 0.76-0.79 0.56-1.3-0.2-0.51-0.79-0.76-1.3-0.56zm-1.79-48.42c0.4 0 0.77-0.24 0.93-0.63 0.21-0.51-0.04-1.09-0.56-1.3l-3.71-1.49c-0.51-0.21-1.09 0.04-1.3 0.56-0.21 0.51 0.04 1.09 0.56 1.3l3.71 1.49q0.18 0.07 0.37 0.07zm4.02-0.39c-0.55 0-1 0.45-1 1v4c0 0.55 0.45 1 1 1 0.55 0 1-0.45 1-1v-4c0-0.55-0.45-1-1-1zm0 10c-0.55 0-1 0.45-1 1v4c0 0.55 0.45 1 1 1 0.55 0 1-0.45 1-1v-4c0-0.55-0.45-1-1-1zm0 10c-0.55 0-1 0.45-1 1v4c0 0.55 0.45 1 1 1 0.55 0 1-0.45 1-1v-4c0-0.55-0.45-1-1-1zm-20.8 36.24l-3.71 1.49c-0.51 0.21-0.76 0.79-0.56 1.3 0.16 0.39 0.53 0.63 0.93 0.63q0.18 0 0.37-0.07l3.71-1.49c0.51-0.21 0.76-0.79 0.56-1.3-0.2-0.51-0.79-0.76-1.3-0.56zm-18.57 7.43l-0.63 0.25-2.34-0.94c-0.51-0.21-1.09 0.04-1.3 0.56-0.21 0.51 0.04 1.09 0.56 1.3l2.71 1.08q0.18 0.09 0.37 0.08 0.19 0 0.37-0.07l1-0.4c0.51-0.21 0.76-0.79 0.56-1.3-0.2-0.52-0.79-0.77-1.3-0.56zm9.29-3.71l-3.71 1.49c-0.51 0.21-0.76 0.79-0.56 1.3 0.16 0.39 0.53 0.63 0.93 0.63q0.19 0 0.37-0.07l3.71-1.49c0.52-0.21 0.77-0.79 0.56-1.3-0.21-0.52-0.79-0.77-1.3-0.56zm-17.83 0.8l-3.71-1.49c-0.51-0.21-1.09 0.04-1.3 0.56-0.21 0.51 0.04 1.09 0.56 1.3l3.71 1.49q0.18 0.07 0.37 0.07c0.4 0 0.77-0.24 0.93-0.63 0.2-0.51-0.05-1.1-0.56-1.3zm38.91-53.77v0.01 34c0 0.39-0.22 0.74-0.58 0.91l-30 14q-0.02 0.01-0.05 0.01-0.18 0.08-0.37 0.08-0.17-0.01-0.33-0.06-0.02 0-0.04-0.01l-30-12c-0.38-0.15-0.63-0.52-0.63-0.93v-36-0.01-0.04q0.01-0.17 0.07-0.3 0.01-0.04 0.03-0.07 0.07-0.15 0.19-0.27 0.03-0.03 0.05-0.04 0.05-0.05 0.11-0.09 0.08-0.05 0.16-0.08 0.02-0.02 0.03-0.02l30-12q0.37-0.15 0.74 0l30 12q0.02 0.01 0.03 0.02 0.09 0.03 0.16 0.08 0.06 0.04 0.11 0.09 0.03 0.03 0.05 0.04 0.12 0.12 0.19 0.27 0.02 0.02 0.04 0.07 0.05 0.15 0.07 0.3-0.05 0.03-0.03 0.04zm-48.19 50.05l-3.71-1.49c-0.51-0.21-1.09 0.04-1.3 0.56-0.21 0.51 0.04 1.09 0.55 1.3l3.72 1.49q0.18 0.07 0.37 0.07c0.4 0 0.77-0.24 0.93-0.63 0.2-0.51-0.05-1.09-0.56-1.3zm45.68-4.51l-3.71 1.49c-0.51 0.21-0.76 0.79-0.56 1.3 0.16 0.39 0.53 0.63 0.93 0.63q0.18 0 0.37-0.07l3.71-1.49c0.51-0.21 0.76-0.79 0.56-1.3-0.21-0.52-0.79-0.77-1.3-0.56zm-55.8-45.53l27.31 10.92 27.31-10.92-27.31-10.92zm-1.69 35.32l28 11.2v-33.84l-28-11.2zm58-33.84l-28 11.2v33.75l28-13.07z"/>
	<text id="Created by shashank singh" style="transform: matrix(1,0,0,1,5,113.5)" >
		<tspan x="0" y="0" class="t1">Created by shashank singh
</tspan>
	</text>
	<text id="from Noun Project" style="transform: matrix(1,0,0,1,5,118.5)" >
		<tspan x="0" y="0" class="t1">from Noun Project
</tspan>
	</text>
</svg>