<svg xmlns="http://www.w3.org/2000/svg" version="1.1" viewBox="-5.0 -10.0 110.0 135.0">
 <path d="m9 58.16v-4c0-0.55078 0.44922-1 1-1s1 0.44922 1 1v4c0 0.55078-0.44922 1-1 1s-1-0.44141-1-1zm63.609-38.039 3.7109 1.4883c0.12109 0.050781 0.25 0.070313 0.37109 0.070313 0.39844 0 0.76953-0.23828 0.92969-0.62891 0.21094-0.51172-0.039063-1.0898-0.55859-1.3008l-3.7109-1.4883c-0.51172-0.21094-1.0898 0.039062-1.3008 0.55859-0.19922 0.51953 0.050781 1.1016 0.55859 1.3008zm-50.688 1.1094c-0.21094-0.51172-0.78906-0.76172-1.3008-0.55859l-3.7109 1.4883c-0.51172 0.21094-0.76172 0.78906-0.55859 1.3008 0.16016 0.39062 0.53125 0.62891 0.92969 0.62891 0.12109 0 0.25-0.019532 0.37109-0.070313l3.7109-1.4883c0.50781-0.20312 0.75781-0.78125 0.55859-1.3008zm1.5977 57.098-3.7109-1.4883c-0.51172-0.21094-1.0898 0.039062-1.3008 0.55859-0.21094 0.51172 0.039063 1.0898 0.55859 1.3008l3.7109 1.4883c0.12109 0.050781 0.25 0.070312 0.37109 0.070312 0.39844 0 0.76953-0.23828 0.92969-0.62891 0.20312-0.50781-0.046875-1.0898-0.55859-1.3008zm-13.52-9.168c0.55078 0 1-0.44922 1-1v-4c0-0.55078-0.44922-1-1-1s-1 0.44922-1 1v4c0 0.55859 0.44922 1 1 1zm4.2383 5.4609-3.7109-1.4883c-0.51172-0.21094-1.0898 0.039063-1.3008 0.55859-0.21094 0.51172 0.039063 1.0898 0.55859 1.3008l3.7109 1.4883c0.12109 0.050781 0.25 0.070312 0.37109 0.070312 0.39844 0 0.76953-0.23828 0.92969-0.62891 0.20312-0.52344-0.046875-1.1016-0.55859-1.3008zm30.891-61.672c0.12109 0 0.25-0.019531 0.37109-0.070313l3.7109-1.4883c0.51172-0.21094 0.76172-0.78906 0.55859-1.3008-0.21094-0.51172-0.78906-0.76172-1.3008-0.55859l-3.7109 1.4883c-0.51172 0.21094-0.76172 0.78906-0.55859 1.3008 0.16016 0.39063 0.53125 0.62891 0.92969 0.62891zm-18.57 7.4297c0.12109 0 0.25-0.019531 0.37109-0.070312l3.7109-1.4883c0.51172-0.21094 0.76172-0.78906 0.55859-1.3008-0.19922-0.51953-0.78906-0.76953-1.3008-0.55859l-3.7109 1.4883c-0.51172 0.21094-0.76172 0.78906-0.55859 1.3008 0.16016 0.39062 0.54297 0.62891 0.92969 0.62891zm9.293-3.7188c0.12109 0 0.25-0.019531 0.37109-0.070312l3.7109-1.4883c0.51172-0.21094 0.76172-0.78906 0.55859-1.3008-0.21094-0.51172-0.78906-0.76172-1.3008-0.55859l-3.7109 1.4883c-0.51172 0.21094-0.76172 0.78906-0.55859 1.3008 0.14844 0.39062 0.52734 0.62891 0.92969 0.62891zm18.188-3.9609 3.7109 1.4883c0.12109 0.050781 0.25 0.070312 0.37109 0.070312 0.39844 0 0.76953-0.23828 0.92969-0.62891 0.21094-0.51172-0.039062-1.0898-0.55859-1.3008l-3.7109-1.4883c-0.51172-0.21094-1.0898 0.039062-1.3008 0.55859-0.19922 0.51172 0.050781 1.0898 0.55859 1.3008zm-44.039 26.461c0.55078 0 1-0.44922 1-1v-4c0-0.55078-0.44922-1-1-1s-1 0.44922-1 1v4c0 0.55859 0.44922 1 1 1zm0-10c0.55078 0 1-0.44922 1-1v-1.4883l1.0781-0.42969c0.51172-0.21094 0.76172-0.78906 0.55859-1.3008-0.21094-0.51172-0.78906-0.76172-1.3008-0.55859l-1.7109 0.67969c-0.375 0.15625-0.625 0.52734-0.625 0.9375v2.1602c0 0.55859 0.44922 1 1 1zm53.328-12.75 3.7109 1.4883c0.12109 0.050781 0.25 0.070312 0.37109 0.070312 0.39844 0 0.76953-0.23828 0.92969-0.62891 0.21094-0.51172-0.039063-1.0898-0.55859-1.3008l-3.7109-1.4883c-0.51172-0.21094-1.0898 0.039063-1.3008 0.55859-0.19922 0.51172 0.050781 1.0898 0.55859 1.3008zm-53.328 32.75c0.55078 0 1-0.44922 1-1v-4c0-0.55078-0.44922-1-1-1s-1 0.44922-1 1v4c0 0.55859 0.44922 1 1 1zm80 5.8398c-0.55078 0-1 0.44922-1 1v4c0 0.55078 0.44922 1 1 1s1-0.44922 1-1v-4c0-0.55078-0.44922-1-1-1zm0 10c-0.55078 0-1 0.44922-1 1v4c0 0.55078 0.44922 1 1 1s1-0.44922 1-1v-4c0-0.55078-0.44922-1-1-1zm-2.2305 8.8086-3.7109 1.4883c-0.51172 0.21094-0.76172 0.78906-0.55859 1.3008 0.16016 0.39062 0.53125 0.62891 0.92969 0.62891 0.12109 0 0.25-0.019531 0.37109-0.070312l3.7109-1.4883c0.51172-0.21094 0.76172-0.78906 0.55859-1.3008-0.19922-0.50781-0.78906-0.75781-1.3008-0.55859zm-1.7891-48.418c0.39844 0 0.76953-0.23828 0.92969-0.62891 0.21094-0.51172-0.039062-1.0898-0.55859-1.3008l-3.7109-1.4883c-0.51172-0.21094-1.0898 0.039063-1.3008 0.55859-0.21094 0.51172 0.039062 1.0898 0.55859 1.3008l3.7109 1.4883c0.12109 0.050782 0.25 0.070313 0.37109 0.070313zm4.0195-0.39062c-0.55078 0-1 0.44922-1 1v4c0 0.55078 0.44922 1 1 1s1-0.44922 1-1v-4c0-0.55078-0.44922-1-1-1zm0 10c-0.55078 0-1 0.44922-1 1v4c0 0.55078 0.44922 1 1 1s1-0.44922 1-1v-4c0-0.55078-0.44922-1-1-1zm0 10c-0.55078 0-1 0.44922-1 1v4c0 0.55078 0.44922 1 1 1s1-0.44922 1-1v-4c0-0.55078-0.44922-1-1-1zm-20.801 36.238-3.7109 1.4883c-0.51172 0.21094-0.76172 0.78906-0.55859 1.3008 0.16016 0.39062 0.53125 0.62891 0.92969 0.62891 0.12109 0 0.25-0.019531 0.37109-0.070312l3.7109-1.4883c0.51172-0.21094 0.76172-0.78906 0.55859-1.3008-0.19922-0.50781-0.78906-0.75781-1.3008-0.55859zm-18.57 7.4336-0.62891 0.25-2.3398-0.94141c-0.51172-0.21094-1.0898 0.039062-1.3008 0.55859-0.21094 0.51172 0.039063 1.0898 0.55859 1.3008l2.7109 1.0781c0.12109 0.0625 0.24219 0.082031 0.37109 0.082031s0.25-0.019531 0.37109-0.070312l1-0.39844c0.51172-0.21094 0.76172-0.78906 0.55859-1.3008-0.19922-0.51953-0.78906-0.76953-1.3008-0.55859zm9.293-3.7109-3.7109 1.4883c-0.51172 0.21094-0.76172 0.78906-0.55859 1.3008 0.16016 0.39062 0.53125 0.62891 0.92969 0.62891 0.12109 0 0.25-0.019531 0.37109-0.070312l3.7109-1.4883c0.51172-0.21094 0.76172-0.78906 0.55859-1.3008-0.21094-0.51953-0.79297-0.76953-1.3008-0.55859zm-17.832 0.80078-3.7109-1.4883c-0.51172-0.21094-1.0898 0.039062-1.3008 0.55859-0.21094 0.51172 0.039063 1.0898 0.55859 1.3008l3.7109 1.4883c0.12109 0.050781 0.25 0.070312 0.37109 0.070312 0.39844 0 0.76953-0.23828 0.92969-0.62891 0.20312-0.51172-0.046876-1.1016-0.55859-1.3008zm36.398-8.2305-3.7109 1.4883c-0.51172 0.21094-0.76172 0.78906-0.55859 1.3008 0.16016 0.39063 0.53125 0.62891 0.92969 0.62891 0.12109 0 0.25-0.019531 0.37109-0.070313l3.7109-1.4883c0.51172-0.21094 0.76172-0.78906 0.55859-1.3008-0.21094-0.51953-0.78906-0.76953-1.3008-0.55859zm-45.68 4.5078-3.7109-1.4883c-0.51172-0.21094-1.0898 0.039063-1.3008 0.55859-0.21094 0.51172 0.039063 1.0898 0.55859 1.3008l3.7109 1.4883c0.12109 0.050781 0.25 0.070312 0.37109 0.070312 0.39844 0 0.76953-0.23828 0.92969-0.62891 0.20312-0.51172-0.046876-1.0898-0.55859-1.3008zm48.191-50.051v0.011719 34c0 0.39062-0.21875 0.73828-0.57812 0.91016l-30 14c-0.019531 0.011719-0.03125 0-0.050781 0.011719-0.12109 0.046875-0.24219 0.078125-0.37109 0.078125-0.10938 0-0.21875-0.03125-0.32812-0.058594-0.011719 0-0.03125 0-0.039063-0.011718l-30-12c-0.38281-0.14844-0.63281-0.51953-0.63281-0.92969v-36-0.011719-0.039062c0.011719-0.10938 0.03125-0.21094 0.070312-0.30078 0.011719-0.019532 0.019532-0.050782 0.03125-0.070313 0.050782-0.10156 0.10938-0.19141 0.19141-0.26953 0.019531-0.019532 0.03125-0.03125 0.050781-0.039063 0.03125-0.03125 0.070312-0.070312 0.10938-0.089843 0.050781-0.03125 0.10156-0.058594 0.16016-0.078126 0.011719-0.011718 0.019531-0.019531 0.03125-0.019531l30-12c0.23828-0.10156 0.5-0.10156 0.73828 0l30 12c0.011719 0 0.019532 0.011719 0.03125 0.019531 0.058594 0.019532 0.10938 0.050782 0.16016 0.078126 0.039062 0.03125 0.070312 0.058593 0.10938 0.089843 0.019531 0.019531 0.03125 0.03125 0.050781 0.039063 0.078125 0.078125 0.14062 0.17188 0.19141 0.26953 0.011719 0.019531 0.019531 0.039063 0.03125 0.070313 0.039063 0.10156 0.058594 0.19922 0.070313 0.30078-0.039063 0.019531-0.027344 0.03125-0.027344 0.039062zm-58.309 0.011719 27.309 10.922 27.309-10.922-27.309-10.922zm-1.6914 35.32 28 11.199v-33.84l-28-11.199zm58-33.84-28 11.199v33.75l28-13.07z"/>
<text x="0.0" y="117.5" font-size="5.0" font-weight="bold" font-family="Arbeit Regular, Helvetica, Arial-Unicode, Arial, Sans-serif" fill="#000000">Created by shashank singh</text><text x="0.0" y="122.5" font-size="5.0" font-weight="bold" font-family="Arbeit Regular, Helvetica, Arial-Unicode, Arial, Sans-serif" fill="#000000">from Noun Project</text></svg>